<?xml version="1.0" encoding="utf-8"?>
<!-- Generator: Adobe Illustrator 24.3.0, SVG Export Plug-In . SVG Version: 6.00 Build 0)  -->
<svg version="1.1" xmlns="http://www.w3.org/2000/svg" xmlns:xlink="http://www.w3.org/1999/xlink" x="0px" y="0px"
	 viewBox="0 0 1200 1200" style="enable-background:new 0 0 1200 1200;" xml:space="preserve">
<style type="text/css">
	.st0{fill:#CB4F24;}
</style>
<g id="Background">
</g>
<g id="Graphic_Elements">
	<g>
		<path class="st0" d="M668.9,396.3c15.8-19.6,25.6-46.6,25.6-76.5c0-59.8-39.2-108.3-87.6-108.3c-30.6,0-57.5,19.4-73.1,48.8
			c-4.2,5.2-352.9,536.7-356.1,542.8c-15.8,19.6-25.6,46.6-25.6,76.5c0,59.8,39.2,108.3,87.6,108.3c30.6,0,57.5-19.4,73.1-48.8
			C316.9,933.9,665.6,402.4,668.9,396.3z"/>
		<path class="st0" d="M870.7,648.5c15.8-19.6,25.6-46.7,25.6-76.6c0-59.8-39.2-108.3-87.6-108.3c-30.6,0-57.5,19.4-73.2,48.8
			c-4.2,5.2-187.4,284.4-190.6,290.5c-15.8,19.6-25.6,46.7-25.6,76.6c0,59.8,39.2,108.3,87.6,108.3c30.6,0,57.5-19.4,73.2-48.8
			C684.2,933.8,867.4,654.6,870.7,648.5z"/>
		<g>
			<ellipse class="st0" cx="974.1" cy="319.8" rx="87.6" ry="108.3"/>
		</g>
		<g>
			<ellipse class="st0" cx="239.6" cy="319.8" rx="87.6" ry="108.3"/>
		</g>
	</g>
</g>
<g id="Text">
</g>
</svg>
